Coordinates
version=1
nRows=19
nColumns=63
inDegrees=yes

Units are S.I. units (second, meters, Newtons, ...)
If the header above contains a line with 'inDegrees', this indicates whether rotational values are in degrees (yes) or radians (no).

endheader
time	pelvis_tilt	pelvis_list	pelvis_rotation	pelvis_tx	pelvis_ty	pelvis_tz	hip_flexion_r	hip_adduction_r	hip_rotation_r	knee_angle_r	knee_angle_r_beta	ankle_angle_r	subtalar_angle_r	mtp_angle_r	hip_flexion_l	hip_adduction_l	hip_rotation_l	knee_angle_l	knee_angle_l_beta	ankle_angle_l	subtalar_angle_l	mtp_angle_l	L5_S1_Flex_Ext	L5_S1_Lat_Bending	L5_S1_axial_rotation	L4_L5_Flex_Ext	L4_L5_Lat_Bending	L4_L5_axial_rotation	L3_L4_Flex_Ext	L3_L4_Lat_Bending	L3_L4_axial_rotation	L2_L3_Flex_Ext	L2_L3_Lat_Bending	L2_L3_axial_rotation	L1_L2_Flex_Ext	L1_L2_Lat_Bending	L1_L2_axial_rotation	L1_T12_Flex_Ext	L1_T12_Lat_Bending	L1_T12_axial_rotation	Abs_r3	Abs_r2	Abs_r1	Abs_t1	Abs_t2	neck_flexion	neck_bending	neck_rotation	arm_flex_r	arm_add_r	arm_rot_r	elbow_flex_r	pro_sup_r	wrist_flex_r	wrist_dev_r	arm_flex_l	arm_add_l	arm_rot_l	elbow_flex_l	pro_sup_l	wrist_flex_l	wrist_dev_l
0.000000	-2.387088	-5.173422	87.814608	0.450999	0.720568	1.011097	2.594520	-1.156513	3.124416	2.249186	0.039256	18.189499	2.105083	0.000000	2.385955	0.124778	-12.813450	4.635116	0.080898	22.205009	9.299669	0.000000	0.072664	-0.129171	3.968059	0.134944	-0.171798	4.216063	0.119379	-0.314067	4.216063	0.083047	-0.314067	3.472052	0.067476	-0.263406	3.224048	0.041520	-0.200086	2.976044	0.519030	-1.461211	22.069155	0.000000	0.000000	25.865192	-5.010858	-12.463340	-10.070516	-11.491515	20.545271	77.955749	63.274707	3.186342	12.649829	26.010257	-13.100645	78.004475	65.297191	77.612529	6.018555	-3.997589
0.020833	-2.974542	-5.552085	87.934916	0.450846	0.719706	1.014030	3.342396	-1.832795	2.868092	2.546428	0.044444	18.713530	2.491977	0.000000	3.269828	0.622778	-12.957835	5.067992	0.088453	22.667324	10.230800	0.000000	0.081228	-0.210140	3.912686	0.150848	-0.279486	4.157229	0.133449	-0.510935	4.157229	0.092835	-0.510935	3.423600	0.075428	-0.428518	3.179057	0.046414	-0.325507	2.934514	0.580203	-2.377147	21.761185	0.000000	0.000000	26.187343	-4.588298	-12.449063	-9.086724	-11.696586	19.456980	77.576171	67.186441	5.513607	15.335688	27.219144	-12.490349	79.591783	64.713907	71.141604	8.217425	1.596959
0.041667	-3.431702	-5.836753	88.072974	0.450655	0.719040	1.016462	3.942610	-2.374835	2.437253	2.823512	0.049280	19.242452	3.090247	0.000000	3.974669	1.009834	-13.025395	5.440361	0.094952	23.030194	10.945471	0.000000	0.088248	-0.273190	3.852939	0.163886	-0.363342	4.093747	0.144983	-0.664234	4.093747	0.100859	-0.664234	3.371321	0.081948	-0.557089	3.130513	0.050425	-0.423171	2.889704	0.630350	-3.090377	21.428889	0.000000	0.000000	26.371798	-4.243160	-12.459464	-8.025844	-11.825646	18.942376	76.932648	69.624822	7.222789	17.535509	28.098848	-11.797657	80.313074	64.015003	65.800039	10.158485	6.234982
0.062500	-3.770108	-6.036241	88.225881	0.450440	0.718550	1.018426	4.406477	-2.792509	1.869580	3.078561	0.053731	19.764869	3.848475	0.000000	4.515562	1.295242	-13.027145	5.755458	0.100452	23.305124	11.467437	0.000000	0.093888	-0.319983	3.789885	0.174359	-0.425577	4.026753	0.154249	-0.778007	4.026753	0.107305	-0.778007	3.316150	0.087184	-0.652509	3.079282	0.053648	-0.495654	2.842414	0.670633	-3.619712	21.078205	0.000000	0.000000	26.433605	-3.973041	-12.496286	-6.915381	-11.885992	18.907910	76.060357	70.793698	8.377096	19.287027	28.683685	-11.048848	80.279571	63.204020	61.527596	11.816408	9.970754
0.083333	-4.001299	-6.159364	88.390733	0.450217	0.718213	1.019957	4.745313	-3.095693	1.202758	3.309694	0.057765	20.269390	4.715244	0.000000	4.907594	1.488296	-12.974094	6.016521	0.105008	23.503620	11.820455	0.000000	0.098309	-0.352183	3.724593	0.182570	-0.468403	3.957380	0.161512	-0.856297	3.957380	0.112357	-0.856297	3.259019	0.091290	-0.718171	3.026232	0.056174	-0.545531	2.793445	0.702212	-3.983960	20.715071	0.000000	0.000000	26.387808	-3.775537	-12.561270	-5.782836	-11.884923	19.260035	74.994476	70.896921	9.039737	20.627976	29.007968	-10.270200	79.602498	62.284502	58.264038	13.165862	12.858549
0.104167	-4.136815	-6.214937	88.564629	0.450001	0.718011	1.021091	4.970434	-3.294265	0.474470	3.515032	0.061349	20.744620	5.639139	0.000000	5.165849	1.598291	-12.877255	6.226788	0.108678	23.637188	12.028281	0.000000	0.101674	-0.371451	3.658130	0.188819	-0.494030	3.886763	0.167041	-0.903146	3.886763	0.116204	-0.903146	3.200864	0.094415	-0.757463	2.972231	0.058097	-0.575378	2.743598	0.726250	-4.201929	20.345423	0.000000	0.000000	26.249455	-3.648245	-12.656156	-4.655711	-11.829736	19.905203	73.770183	70.138341	9.273920	21.596092	29.106011	-9.487991	78.393076	61.259990	55.949128	14.181520	14.952639
0.125000	-4.188194	-6.211775	88.744667	0.449806	0.717922	1.021862	5.093155	-3.398102	-0.277602	3.692695	0.064450	21.179165	6.568741	0.000000	5.305412	1.634522	-12.747639	6.389495	0.111518	23.717332	12.114672	0.000000	0.104146	-0.379451	3.591564	0.193410	-0.504670	3.816036	0.171102	-0.922598	3.816036	0.119029	-0.922598	3.142618	0.096710	-0.773777	2.918145	0.059509	-0.587770	2.693673	0.743906	-4.292428	19.975200	0.000000	0.000000	26.033591	-3.588763	-12.782687	-3.561511	-11.727730	20.749866	72.422655	68.721810	9.142854	22.229110	29.012128	-8.728500	76.762530	60.134027	54.522629	14.838052	16.307298
0.145833	-4.166976	-6.158693	88.927944	0.449649	0.717925	1.022306	5.124791	-3.417079	-1.015772	3.840806	0.067035	21.561632	7.452635	0.000000	5.341369	1.606285	-12.596258	6.507880	0.113584	23.755560	12.103384	0.000000	0.105887	-0.377846	3.525961	0.196643	-0.502535	3.746334	0.173962	-0.918694	3.746334	0.121018	-0.918694	3.085216	0.098327	-0.770503	2.864843	0.060504	-0.585283	2.644471	0.756342	-4.274266	19.610338	0.000000	0.000000	25.755263	-3.594687	-12.942603	-2.527737	-11.586202	21.700477	70.987071	66.851177	8.709747	22.564763	28.760633	-8.018004	74.822081	58.910154	53.924305	15.110128	16.976800
0.166667	-4.084701	-6.064506	89.111559	0.449543	0.718000	1.022457	5.076658	-3.361074	-1.702358	3.957483	0.069071	21.880626	8.239404	0.000000	5.288804	1.522875	-12.434123	6.585180	0.114933	23.763376	12.018173	0.000000	0.107060	-0.368297	3.462390	0.198821	-0.489835	3.678790	0.175889	-0.895478	3.678790	0.122359	-0.895478	3.029592	0.099416	-0.751031	2.813192	0.061174	-0.570492	2.596793	0.764719	-4.166250	19.256777	0.000000	0.000000	25.429516	-3.663614	-13.137647	-1.581893	-11.412451	22.663488	69.498606	64.730293	8.037808	22.640788	28.385840	-7.382783	72.682953	57.591914	54.093918	14.972420	17.015419
0.187500	-3.952907	-5.938029	89.292610	0.449505	0.718127	1.022350	4.960072	-3.239963	-2.299677	4.040849	0.070526	22.124755	8.877630	0.000000	5.162802	1.393586	-12.272247	6.624632	0.115622	23.752286	11.882795	0.000000	0.107827	-0.352468	3.401919	0.200246	-0.468783	3.614539	0.177149	-0.856991	3.614539	0.123236	-0.856991	2.976679	0.100128	-0.718753	2.764059	0.061612	-0.545973	2.551439	0.770198	-3.987190	18.920453	0.000000	0.000000	25.071396	-3.793140	-13.369559	-0.751480	-11.213775	23.545350	67.992440	62.563009	7.190244	22.494919	27.922064	-6.849114	70.456369	56.182848	54.971231	14.399597	16.477426
0.208333	-3.783133	-5.788078	89.468193	0.449549	0.718284	1.022021	4.786348	-3.063624	-2.770044	4.089023	0.071367	22.282624	9.315897	0.000000	4.978449	1.227714	-12.121641	6.629473	0.115706	23.733797	11.721008	0.000000	0.108351	-0.332022	3.345614	0.201219	-0.441589	3.554715	0.178010	-0.807277	3.554715	0.123834	-0.807277	2.927413	0.100615	-0.677058	2.718312	0.061912	-0.514301	2.509211	0.773940	-3.755895	18.607304	0.000000	0.000000	24.695950	-3.980863	-13.640081	-0.064002	-10.997471	24.252517	66.503750	60.553176	6.230265	22.164891	27.403617	-6.443275	68.253552	54.686499	56.496006	13.366331	15.417097
0.229167	-3.613511	-5.623246	89.642988	0.449837	0.718469	1.021442	4.545438	-2.849866	-2.891476	4.056174	0.070794	22.270386	9.275692	0.000000	4.746034	1.050806	-12.061961	6.596293	0.115127	23.681668	11.616333	0.000000	0.108104	-0.316239	3.300602	0.200760	-0.420598	3.506890	0.177604	-0.768904	3.506890	0.123552	-0.768904	2.888027	0.100385	-0.644875	2.681739	0.061771	-0.489855	2.475451	0.772176	-3.577362	18.356958	0.000000	0.000000	24.301944	-4.232236	-14.158560	0.353661	-10.740153	24.197798	65.165406	59.846032	5.420363	21.852336	26.989931	-6.213192	66.541906	52.914812	58.915432	11.194938	13.871744
0.250000	-3.425377	-5.453882	89.815382	0.450184	0.718619	1.020687	4.270678	-2.600342	-2.817545	4.000026	0.069814	22.118973	8.858213	0.000000	4.493871	0.855160	-12.004352	6.538142	0.114112	23.730411	11.567046	0.000000	0.108650	-0.297457	3.266985	0.201774	-0.395617	3.471171	0.178501	-0.723236	3.471171	0.124176	-0.723236	2.858612	0.100892	-0.606574	2.654425	0.062083	-0.460760	2.450239	0.776077	-3.364889	18.169990	0.000000	0.000000	23.915496	-4.597660	-14.736152	0.445132	-10.480927	23.608302	64.087478	59.923401	4.319725	21.368632	26.741046	-6.182024	65.610939	50.955015	62.066060	8.120496	11.427056
0.270833	-3.237523	-5.292885	89.943117	0.450676	0.718714	1.019845	3.999586	-2.328971	-2.528950	3.944485	0.068844	21.842564	8.115418	0.000000	4.238991	0.654148	-11.994765	6.457760	0.112709	23.862646	11.561754	0.000000	0.109839	-0.278003	3.246061	0.203983	-0.369744	3.448939	0.180455	-0.675936	3.448939	0.125535	-0.675936	2.840303	0.101997	-0.566903	2.637424	0.062762	-0.430626	2.434545	0.784572	-3.144824	18.053615	0.000000	0.000000	23.579351	-5.031380	-15.281659	0.271633	-10.241530	22.547539	63.167549	60.695417	3.306512	20.763859	26.640020	-6.429651	65.348934	48.932509	65.647257	4.523735	8.461760
0.291667	-3.054912	-5.147117	90.043618	0.451285	0.718737	1.018950	3.720304	-2.039837	-1.961929	3.848963	0.067177	21.422042	6.949286	0.000000	3.991326	0.450265	-12.054047	6.356138	0.110936	24.055984	11.663791	0.000000	0.111378	-0.258306	3.235438	0.206841	-0.343548	3.437653	0.182984	-0.628046	3.437653	0.127294	-0.628046	2.831008	0.103426	-0.526738	2.628793	0.063642	-0.400117	2.426579	0.795565	-2.922014	17.994536	0.000000	0.000000	23.326509	-5.495690	-15.741465	-0.172958	-10.007602	20.990933	62.332447	62.424281	2.734286	20.086077	26.619042	-6.969848	65.522207	46.976393	69.235299	0.664817	5.328696
0.312500	-2.889269	-5.032311	90.124854	0.452027	0.718668	1.018086	3.453463	-1.745757	-1.119905	3.707581	0.064709	20.869543	5.388588	0.000000	3.775032	0.254220	-12.150752	6.238990	0.108891	24.274158	11.823387	0.000000	0.114029	-0.240678	3.220125	0.211764	-0.320101	3.421382	0.187339	-0.585184	3.421382	0.130324	-0.585184	2.817609	0.105888	-0.490790	2.616351	0.065156	-0.372810	2.415093	0.814501	-2.722595	17.909367	0.000000	0.000000	23.180890	-5.939660	-16.053857	-0.775528	-9.841117	19.210306	61.496297	64.810736	2.530100	19.420137	26.496230	-7.818536	65.588629	45.201472	72.854446	-2.946705	2.501154
0.333333	-2.746426	-4.956410	90.187129	0.452878	0.718491	1.017312	3.211206	-1.459561	-0.055160	3.512031	0.061297	20.239015	3.556302	0.000000	3.600336	0.074315	-12.287600	6.104518	0.106544	24.482695	12.023079	0.000000	0.118079	-0.225759	3.202553	0.219284	-0.300260	3.402713	0.193992	-0.548911	3.402713	0.134952	-0.548911	2.802234	0.109648	-0.460368	2.602075	0.067470	-0.349701	2.401915	0.843425	-2.553833	17.811642	0.000000	0.000000	23.146791	-6.348245	-16.216033	-1.513814	-9.749544	17.216541	60.634976	67.763332	2.712794	18.768121	26.242149	-8.928379	65.449070	43.608253	76.301061	-6.169476	0.239848
0.354167	-2.628764	-4.925140	90.225140	0.453841	0.718200	1.016666	2.996725	-1.184627	1.322216	3.246817	0.056668	19.535480	1.377714	0.000000	3.473961	-0.087387	-12.460425	5.953875	0.103915	24.661314	12.241397	0.000000	0.123717	-0.214029	3.189250	0.229755	-0.284658	3.388578	0.203255	-0.520390	3.388578	0.141397	-0.520390	2.790593	0.114884	-0.436448	2.591265	0.070692	-0.331531	2.391937	0.883701	-2.421137	17.737649	0.000000	0.000000	23.228162	-6.723057	-16.256346	-2.392377	-9.708627	14.940004	59.776087	71.262045	3.198834	18.088414	25.909391	-10.260001	65.248144	42.188293	79.506761	-9.040779	-1.534432
0.375000	-2.529537	-4.924829	90.250757	0.454869	0.717817	1.016230	2.817117	-0.925644	2.763213	2.938180	0.051281	18.852755	-0.806850	0.000000	3.400853	-0.238863	-12.692005	5.818343	0.101549	24.815874	12.497523	0.000000	0.128154	-0.204378	3.156155	0.237995	-0.271823	3.353415	0.210545	-0.496926	3.353415	0.146468	-0.496926	2.761636	0.119004	-0.416769	2.564376	0.073227	-0.316582	2.367117	0.915394	-2.311970	17.553590	0.000000	0.000000	23.399018	-6.979659	-16.102959	-3.234049	-9.783971	12.645656	58.907315	74.964919	3.906976	17.590449	25.341105	-11.769660	64.554278	40.947305	82.256378	-11.280157	-2.446876
